<mxfile host="app.diagrams.net" modified="2023-05-20T06:22:33.362Z" agent="Mozilla/5.0 (Windows NT 10.0; Win64; x64) AppleWebKit/537.36 (KHTML, like Gecko) Chrome/113.0.0.0 Safari/537.36" version="21.2.1" etag="6gqEgrXMeZpYQzpT9N2w" type="github">
  <diagram name="第 1 页" id="F6tR8DsvzvqYMDO8uXwj">
    <mxGraphModel>
      <root>
        <mxCell id="0" />
        <mxCell id="1" parent="0" />
      </root>
    </mxGraphModel>
  </diagram>
</mxfile>
